<svg width="196" height="89" viewBox="0 0 196 89" fill="none" xmlns="http://www.w3.org/2000/svg">
<path d="M43.2194 32.7896H56.406L81.7916 73.0738H68.5469L43.2194 32.7896ZM64.4806 40.9869L68.8955 32.7896H81.6173L70.5801 50.7067L64.4806 40.9869ZM54.1405 54.8053L60.1819 64.4665L55.7089 73.0738H42.9871L54.1405 54.8053Z" fill="#48AFBD"/>
<path d="M81.4857 32.7896H93.1038V73.0738H81.4857V32.7896ZM95.5436 51.5849H96.9378C98.1771 51.5849 99.0872 51.5459 99.6681 51.4678C100.288 51.3507 100.772 51.1165 101.12 50.7652C101.469 50.4529 101.682 50.004 101.759 49.4185C101.876 48.7939 101.934 47.8766 101.934 46.6665C101.934 45.4564 101.876 44.5586 101.759 43.9731C101.682 43.3485 101.469 42.8606 101.12 42.5093C100.772 42.197 100.288 42.0018 99.6681 41.9238C99.0484 41.8067 98.1384 41.7481 96.9378 41.7481H95.5436V32.7896H100.365C103.231 32.7896 105.555 33.0823 107.336 33.6678C109.156 34.2143 110.531 35.0731 111.46 36.2442C112.351 37.3371 112.951 38.7229 113.261 40.4014C113.571 42.0409 113.726 44.1292 113.726 46.6665C113.726 49.0867 113.571 51.097 113.261 52.6974C112.99 54.2979 112.429 55.6446 111.577 56.7376C110.608 57.9867 109.214 58.9431 107.394 59.6067C105.613 60.2312 103.27 60.5435 100.365 60.5435H95.5436V51.5849Z" fill="#48AFBD"/>
<path d="M113.858 31.4284C113.858 38.2627 116.438 42.6586 123.733 45.0404C124.965 45.4427 124.97 51.3296 126.309 51.5223C127.425 51.6828 133.51 46.8634 134.682 46.8634C145.59 46.8634 153.359 40.3781 153.359 31.4284C153.359 22.4788 144.516 15.2236 133.608 15.2236C122.7 15.2236 113.858 22.4788 113.858 31.4284Z" fill="#8224A4"/>
</svg>
