<svg width="24" height="24" viewBox="0 0 24 24" fill="none" xmlns="http://www.w3.org/2000/svg">
<path d="M21.1401 13.176C21.1894 12.792 21.2387 12.408 21.2387 12C21.2387 11.592 21.214 11.208 21.1401 10.824L23.7507 8.832C23.9724 8.64 24.0463 8.328 23.8985 8.064L21.4357 3.912C21.2879 3.648 20.9677 3.552 20.6722 3.648L17.6183 4.848C16.978 4.368 16.2884 3.96 15.5249 3.672L15.057 0.504C15.0324 0.216 14.7615 0 14.4659 0H9.54031C9.24477 0 8.97386 0.216 8.92461 0.504L8.45667 3.672C7.71783 3.984 7.00362 4.368 6.36329 4.848L3.3094 3.648C3.03849 3.552 2.71833 3.648 2.54593 3.912L0.0831195 8.064C-0.0646491 8.328 -0.0153919 8.64 0.230889 8.832L2.84147 10.824C2.79221 11.208 2.76758 11.592 2.76758 12C2.76758 12.408 2.79221 12.792 2.84147 13.176L0.230889 15.168C0.00923623 15.36 -0.0646491 15.672 0.0831195 15.936L2.54593 20.088C2.6937 20.352 3.01386 20.448 3.3094 20.352L6.36329 19.152C7.00362 19.632 7.6932 20.04 8.45667 20.328L8.92461 23.496C8.97386 23.784 9.22015 24 9.54031 24H14.4659C14.7615 24 15.0324 23.784 15.0816 23.496L15.5496 20.328C16.2884 20.016 17.0026 19.632 17.6183 19.152L20.6968 20.352C20.9678 20.448 21.2879 20.352 21.4603 20.088L23.9231 15.936C24.0709 15.672 23.997 15.36 23.7754 15.168L21.1401 13.176ZM12.0031 15.6C9.95899 15.6 8.30891 13.992 8.30891 12C8.30891 10.008 9.95899 8.4 12.0031 8.4C14.0473 8.4 15.6973 10.008 15.6973 12C15.6973 13.992 14.0473 15.6 12.0031 15.6Z" fill="black"/>
</svg>
